HIERARCHY
ROOT Hips
{
	OFFSET 0.000000 0.000000 0.000000 
	CHANNELS 6 Xposition Yposition Zposition Yrotation Zrotation Xrotation 
	JOINT Lumbar
	{
		OFFSET 0.000000 0.000000 0.000000 
		CHANNELS 3 Zrotation Xrotation Yrotation
		JOINT Neck
		{
			OFFSET 0.000000 0.445665 0.000000 
			CHANNELS 3 Zrotation Xrotation Yrotation
			End Site
			{
				OFFSET 0.000000 0.227535 0.000000 
			}
		}
		JOINT RightShoulder
		{
			OFFSET 0.019635 0.377685 0.194865 
			CHANNELS 3 Zrotation Xrotation Yrotation
			JOINT RightElbow
			{
				OFFSET 0.000000 -0.243375 0.000000 
				CHANNELS 2 Zrotation Yrotation
				JOINT RightWrist
				{
					OFFSET 0.000000 -0.264825 0.000000 
					CHANNELS 2 Zrotation Xrotation
					End Site
					{
						OFFSET 0.006600 -0.176220 0.000990 
					}
				}
			}
		}
		JOINT LeftShoulder
		{
			OFFSET 0.019635 0.377685 -0.194865 
			CHANNELS 3 Zrotation Xrotation Yrotation
			JOINT LeftElbow
			{
				OFFSET 0.000000 -0.243375 0.000000 
				CHANNELS 2 Zrotation Yrotation
				JOINT LeftWrist
				{
					OFFSET 0.000000 -0.264825 0.000000 
					CHANNELS 2 Zrotation Xrotation
					End Site
					{
						OFFSET 0.006600 -0.176220 -0.000990 
					}
				}
			}
		}
	}
	JOINT RightHip
	{
		OFFSET 0.052140 -0.069960 0.075570 
		CHANNELS 3 Zrotation Xrotation Yrotation
		JOINT RightKnee
		{
			OFFSET 0.000000 -0.402270 0.000000 
			CHANNELS 1 Zrotation
			JOINT RightAnkle
			{
				OFFSET 0.000000 -0.404085 0.000000 
				CHANNELS 3 Zrotation Xrotation Yrotation
				End Site
				{
					OFFSET 0.204105 -0.089430 0.008415 
				}
			}
		}
	}
	JOINT LeftHip
	{
		OFFSET 0.052140 -0.069960 -0.075570 
		CHANNELS 3 Zrotation Xrotation Yrotation
		JOINT LeftKnee
		{
			OFFSET 0.000000 -0.402270 0.000000 
			CHANNELS 1 Zrotation
			JOINT LeftAnkle
			{
				OFFSET 0.000000 -0.404085 0.000000 
				CHANNELS 3 Zrotation Xrotation Yrotation
				End Site
				{
					OFFSET 0.204105 -0.089430 -0.008415 
				}
			}
		}
	}
}
MOTION
Frames: 14
Frame Time: 0.02
0.79428 0.63306 0.33498 179.74558 0 4.3914 10.28482 -4.5111 -4.33687 -19.66337 10.75997 1.9397 54.06937 -14.88211 50.35233 33.52365 76.96963 48.65111 -3.63699 54.85678 -3.76176 -55.63381 20.88211 -78.12629 23.07518 3.54923 126.68097 -32.08563 -29.41799 -141.00223 -10.36327 -0.00071 13.00603 126.68097 32.08563 33.87026 -139.8922 -9.16172 -0.47406 -3.24083
0.79388 0.63357 0.33484 179.64266 0 4.65079 10.82741 -4.89 -4.2212 -20.78736 11.89782 2.76305 55.33369 -15.99978 51.34126 33.15022 76.37784 48.31819 -3.50414 55.61914 -5.02125 -55.63344 20.28018 -77.57915 21.42721 3.72054 126.68097 -32.08563 -29.45074 -140.8204 -11.57624 0.0006 13.00605 126.68097 32.08563 33.84538 -139.90998 -9.7452 -0.30761 -2.7366
0.7933 0.63424 0.33461 179.50195 0 5.00546 11.3543 -5.3534 -4.11985 -21.79315 13.00786 3.66896 56.33723 -17.13834 52.23052 32.91175 75.84618 47.95543 -3.30878 56.19903 -6.25314 -55.63249 19.73596 -76.94144 19.95427 3.91666 126.68097 -32.08564 -29.53194 -140.67386 -12.75135 0.00235 13.00602 126.68097 32.08563 33.79771 -139.98408 -10.24519 -0.00862 -2.26706
0.79283 0.63482 0.33442 179.38214 0 5.30833 11.87704 -5.76684 -4.02057 -22.81317 14.11144 4.5169 57.41623 -18.24482 53.12055 32.62344 75.33629 47.63714 -3.15271 56.83214 -7.47275 -55.63098 19.1787 -76.35746 18.43124 4.09812 126.68097 -32.08564 -29.58861 -140.51501 -13.90804 0.00393 13.00592 126.68096 32.08563 33.76053 -140.02998 -10.76539 0.2189 -1.79847
0.79227 0.63548 0.33421 179.24417 0 5.64547 12.44828 -6.22853 -3.88365 -24.00696 15.30703 5.45618 58.6898 -19.45489 54.20683 32.27996 74.62627 47.18755 -2.95201 57.59658 -8.8092 -55.6327 18.5579 -75.71363 16.75697 4.29559 126.68097 -32.08564 -29.65641 -140.33802 -15.22576 0.00542 13.00621 126.68096 32.08563 33.71934 -140.08591 -11.3592 0.48966 -1.2586
0.79185 0.63601 0.33402 179.13559 0 5.93458 12.91419 -6.60995 -3.82917 -24.80848 16.29934 6.2233 59.49239 -20.45067 54.86146 32.08478 74.33925 47.00209 -2.82788 58.04203 -9.8909 -55.62784 18.08587 -75.17509 15.44919 4.46484 126.68097 -32.08564 -29.71251 -140.20805 -16.19659 0.00713 13.0057 126.68096 32.08563 33.68206 -140.13479 -11.78087 0.70395 -0.87518
0.79185 0.63617 0.3339 179.12258 0 6.0665 13.09595 -6.7493 -3.99766 -24.54971 16.74478 6.48893 59.04357 -20.85276 54.29848 32.28122 75.2729 47.58509 -2.94356 57.64884 -10.27755 -55.60247 18.01468 -74.95576 15.11679 4.55125 126.68097 -32.08564 -29.72223 -140.2002 -16.19807 0.01005 13.0027 126.68096 32.08563 33.66557 -140.14907 -11.74087 0.72354 -0.9219
0.79198 0.63621 0.3338 179.14006 0 6.14716 13.17159 -6.80492 -4.24897 -23.9003 16.9834 6.57838 58.13047 -21.03634 53.31164 32.62058 76.6179 48.42934 -3.13618 56.94061 -10.40638 -55.57094 18.09174 -74.8456 15.15023 4.60795 126.68097 -32.08564 -29.71879 -140.23867 -15.85338 0.01308 12.99896 126.68097 32.08563 33.65365 -140.15464 -11.53184 0.68333 -1.12381
0.79205 0.63631 0.33369 179.14041 0 6.25243 13.29392 -6.89881 -4.46338 -23.43259 17.31052 6.75202 57.43757 -21.31731 52.55032 32.88568 77.72966 49.1339 -3.28475 56.37718 -10.65094 -55.54391 18.09921 -74.68215 15.01565 4.67724 126.68097 -32.08564 -29.72278 -140.25567 -15.67955 0.01556 12.99576 126.68097 32.08563 33.63715 -140.16523 -11.40472 0.67527 -1.25053
0.79212 0.63639 0.33358 179.15259 0 6.35581 13.4224 -6.99489 -4.6754 -22.94327 17.66115 6.91274 56.69705 -21.60895 51.6485 33.19455 79.03712 49.92661 -3.46875 55.80013 -10.90242 -55.50982 18.11737 -74.53015 14.89287 4.75125 126.68097 -32.08563 -29.7225 -140.27549 -15.44932 0.02004 12.99172 126.68097 32.08563 33.62986 -140.17339 -11.25322 0.65111 -1.39817
0.79222 0.63647 0.33347 179.14865 0 6.44925 13.51285 -7.0652 -4.91155 -22.40771 17.91262 7.05554 55.94868 -21.82404 50.93792 33.44461 80.03623 50.59721 -3.59898 55.17962 -11.07659 -55.4888 18.14841 -74.38241 14.83176 4.80806 126.68097 -32.08563 -29.72715 -140.30018 -15.2525 0.02051 12.98923 126.68097 32.08564 33.6054 -140.18368 -11.11342 0.64416 -1.53859
0.79233 0.6366 0.33335 179.08637 0 6.53092 13.52598 -7.08573 -5.19712 -21.84008 17.95203 7.20727 55.29413 -21.89852 50.87623 33.49565 80.06202 50.87512 -3.55387 54.51142 -11.11635 -55.5068 18.17361 -74.212 14.83925 4.82418 126.68097 -32.08563 -29.75032 -140.32535 -15.25158 0.00876 12.99136 126.68097 32.08564 33.5274 -140.2029 -11.04755 0.70234 -1.62154
0.79245 0.63672 0.33322 179.00824 0 6.60301 13.50413 -7.08227 -5.50351 -21.24 17.89655 7.34367 54.6488 -21.89994 51.01891 33.48226 79.7666 51.01975 -3.45367 53.81237 -11.08406 -55.53791 18.20748 -74.04405 14.89801 4.82388 126.68097 -32.08563 -29.7784 -140.35393 -15.29267 -0.00682 12.99503 126.68097 32.08564 33.43307 -140.22403 -10.99939 0.77873 -1.69169
0.79256 0.63684 0.33309 178.9417 0 6.67728 13.49741 -7.08917 -5.79823 -20.65526 17.87763 7.47673 53.99901 -21.92359 51.05726 33.49877 79.63228 51.22002 -3.38443 53.13117 -11.07473 -55.56208 18.24034 -73.88044 14.94007 4.83139 126.68097 -32.08563 -29.8028 -140.3819 -15.30245 -0.01986 12.99788 126.68097 32.08564 33.3495 -140.24348 -10.94377 0.84409 -1.76712
